<?xml version="1.0" encoding="UTF-8"?>
<svg version="1.1" xmlns="http://www.w3.org/2000/svg" width="410" height="156">
<path d="M0 0 C1.63930993 1.63930993 1.21001367 3.49743674 1.25 5.75 C1.22571392 9.98792063 0.72056056 12.5992993 -2 16 C-4.73526955 14.7964814 -6.9997153 13.28541355 -9.375 11.5 C-16.15244705 6.66304305 -22.8393725 6.27436281 -31 7 C-34.45248103 8.17033255 -36.20218221 8.78227812 -38.1875 11.8125 C-37.88268074 15.36872472 -35.44117484 17.57960111 -33 20 C-30.73170212 21.6830831 -28.33898929 23.0618619 -25.875 24.4375 C-24.54130056 25.21551859 -23.20797016 25.99417011 -21.875 26.7734375 C-19.50391108 28.1398475 -17.12783647 29.49688163 -14.75 30.8515625 C-8.99846737 34.27434958 -3.9499256 37.31308236 -2 44 C-0.82263952 53.40899005 -1.12844473 62.10708964 -7 70 C-9.5625 72.5 -9.5625 72.5 -12 74 C-12.56589844 74.35191406 -13.13179687 74.70382813 -13.71484375 75.06640625 C-20.8898714 77.99774233 -30.44849808 76.64389121 -37.4375 73.875 C-45.28208127 70.1163581 -51.54612874 66.20294425 -55 58 C-55.87460842 51.98706712 -53.94606488 48.06354901 -51 43 C-50.34 43 -49.68 43 -49 43 C-48.4121875 44.546875 -48.4121875 44.546875 -47.8125 46.125 C-44.45457216 53.80026363 -39.51400843 57.62608924 -32 61 C-26.2821978 62.87819698 -18.564021 63.27145296 -12.88671875 61.24609375 C-9.98770907 59.41173279 -7.90538655 57.31975069 -7 54 C-6.69384054 51.51400388 -6.69384054 51.51400388 -8 49 C-13.06538836 44.42095943 -18.9953024 41.21904413 -25 38.0625 C-41.20991736 29.29314626 -41.20991736 29.29314626 -44 22 C-44.90467287 14.80070852 -44.86893719 8.52709906 -40.42578125 2.58203125 C-29.66669656 -9.35613122 -12.99327224 -6.50730383 0 0 Z " fill="#2563eb" transform="translate(98,39)"/>
<path d="M0 0 C1.9609375 0.05078125 1.9609375 0.05078125 4.375 0.3125 C5.16648438 0.39113281 5.95796875 0.46976563 6.7734375 0.55078125 C9 1 9 1 12 3 C11.40654611 5.94520053 10.55889131 7.91773335 8.77734375 10.328125 C8.09889404 11.26809326 8.09889404 11.26809326 7.40673828 12.22705078 C6.92188965 12.89462402 6.43704102 13.56219727 5.9375 14.25 C-1.4780542 24.76884177 -13 41.57400623 -13 55 C-12.5153125 54.35933594 -12.030625 53.71867187 -11.53125 53.05859375 C0.43069232 37.62308741 0.43069232 37.62308741 7.75 36.625 C12.22897544 37.14180486 13.7737192 38.92735162 17 42 C16.36935756 45.02877673 15.36657628 47.37358759 13.8203125 50.046875 C13.38589844 50.81 12.95148438 51.573125 12.50390625 52.359375 C11.59334817 53.93801961 10.68190692 55.51615517 9.76953125 57.09375 C4.29800291 66.46497055 4.29800291 66.46497055 3 77 C3.99 77 4.98 77 6 77 C5.8125 78.8125 5.8125 78.8125 5 81 C2.27561524 83.19464328 0.83728408 84.05841517 -2.6875 83.8125 C-5 83 -5 83 -7 81 C-8.06994923 74.47435188 -6.25058183 68.67724032 -4 62.625 C-3.43365463 61.05607026 -2.8709877 59.48580646 -2.3125 57.9140625 C-2.06113281 57.2329541 -1.80976563 56.5518457 -1.55078125 55.85009766 C-0.85733586 53.84250879 -0.85733586 53.84250879 -1 51 C-11.03045769 61.09496224 -17.43427572 74.05696275 -23 87 C-23.99 87 -24.98 87 -26 87 C-32.95014123 72.288417 -22.78553453 47.70580424 -17.6640625 33.28515625 C-13.76606211 22.89912982 -7.89081934 7.89081934 0 0 Z M-15 56 C-14 58 -14 58 -14 58 Z " fill="#2563eb" transform="translate(164,25)"/>
<path d="M0 0 C10.81280374 12.69528762 13.17414957 30.59109538 12.20703125 46.76269531 C10.88370781 61.06332739 5.05925155 77.41015949 -6 87 C-9.44211593 89.11875264 -11.99741947 89.26265316 -16.03515625 88.5859375 C-19.54439327 87.53944535 -20.93094615 85.98187172 -23 83 C-26.74906905 73.91968598 -24.14268389 64.60919159 -20.7734375 55.7890625 C-17.47116342 48.61261212 -13.19979442 42.00296454 -7 37 C-2.3316539 36.09644914 -0.93108597 36.37927602 3 39 C0.48477417 29.60685574 -2.05591952 20.97255255 -6.9609375 12.515625 C-8.21020302 9.49108743 -8.03650228 8.06804675 -7 5 C-4.70614672 2.24737607 -3.42647711 1.14215904 0 0 Z M0.43359375 45.44140625 C-3.98587168 50.13762882 -7.35315151 54.96385992 -10.375 60.625 C-10.70830322 61.24576416 -11.04160645 61.86652832 -11.38500977 62.50610352 C-14.67577359 68.89246648 -16.29601443 74.74764643 -16 82 C-14.68 82.66 -13.36 83.32 -12 84 C-2.59746793 74.54327467 3.14959762 61.76784539 3.1875 48.3125 C3.14053279 46.8744087 3.08412735 45.43639656 3 44 C1.7678629 43.88714399 1.7678629 43.88714399 0.43359375 45.44140625 Z " fill="#2563eb" transform="translate(237,24)"/>
<path d="M0 0 C3.5 0.375 3.5 0.375 6.5 2.375 C5.1764499 5.8345765 3.65813106 9.15831368 2.0378418 12.48828125 C-1.56915293 19.94344446 -4.30349004 27.37263959 -6.5 35.375 C-6.91587232 36.81273001 -7.33237076 38.25027936 -7.75 39.6875 C-7.9975 40.574375 -8.245 41.46125 -8.5 42.375 C-5.05570878 39.22549046 -2.62248804 35.73195958 -0.25 31.75 C0.13551025 31.10772461 0.52102051 30.46544922 0.91821289 29.80371094 C5.15828358 22.54491781 8.45730816 14.88168301 11.68139648 7.12988281 C12.5 5.375 12.5 5.375 14.5 2.375 C18.23487777 2.8729837 20.31237635 3.24991756 23.5 5.375 C22.95123757 10.62550474 21.63884209 15.07278483 19.5625 19.9375 C15.56173701 29.11818614 15.56173701 29.11818614 14.3125 38.9375 C14.32216797 40.30068359 14.32216797 40.30068359 14.33203125 41.69140625 C14.49750737 44.33517586 14.91661257 46.79409403 15.5 49.375 C10.64761065 48.92361494 7.88179697 47.94467458 4.5 44.375 C3.1875 40.625 3.1875 40.625 2.5 37.375 C1.93410156 38.15746094 1.36820312 38.93992188 0.78515625 39.74609375 C0.05167969 40.75800781 -0.68179687 41.76992187 -1.4375 42.8125 C-2.53384766 44.32650391 -2.53384766 44.32650391 -3.65234375 45.87109375 C-5.5 48.375 -5.5 48.375 -6.5 49.375 C-10.4733857 49.91682532 -12.03502269 49.71598336 -15.3125 47.3125 C-18.63928255 42.84510629 -18.70821003 38.98657842 -18.00390625 33.53515625 C-17.70935953 32.16498949 -17.39464897 30.79904022 -17.0625 29.4375 C-16.80158569 28.34465698 -16.80158569 28.34465698 -16.53540039 27.22973633 C-14.46430625 19.26669213 -9.05203337 0.96986072 0 0 Z " fill="#2563eb" transform="translate(267.5,59.625)"/>
<path d="M0 0 C4.50802601 1.25805377 7.4912812 2.90407165 11 6 C9.5002455 10.10902127 7.48847494 13.68501778 5.25 17.4375 C-7.73387973 39.84151767 -14.37799473 65.3711838 -17 91 C-20.33125783 89.45457111 -22.00697803 88.13189166 -24 85 C-31.6188749 62.1433753 -12.99178603 25.11920716 -3 5 C-2.02476928 3.31871989 -1.03526592 1.64499309 0 0 Z " fill="#2563eb" transform="translate(317,24)"/>
<path d="M0 0 C3 1.5625 3 1.5625 5 4 C6.08051196 10.88826376 3.49168463 17.18237347 0.3125 23.1875 C-3.8036766 28.19366073 -9.28257563 31.97312827 -15 35 C-15.66 35 -16.32 35 -17 35 C-16.67 37.64 -16.34 40.28 -16 43 C-13.60487478 43.85883109 -12.4383567 44.17516838 -10.03515625 43.21484375 C-5.48353663 40.26755738 -2.24184298 37.3562265 1 33 C1.66 33.33 2.32 33.66 3 34 C2.51959452 38.53182507 0.99650952 40.49674083 -2.25 43.625 C-3.01828125 44.38039062 -3.7865625 45.13578125 -4.578125 45.9140625 C-8.18917939 49.0242287 -10.58871632 51 -15.4375 51 C-19.75836087 49.78712677 -21.90679144 48.23707873 -25 45 C-29.0734904 36.85301921 -26.99771415 28.40828026 -24.26953125 20.15625 C-21.53714744 13.36312348 -17.45272445 7.87875346 -12 3 C-11.401875 2.401875 -10.80375 1.80375 -10.1875 1.1875 C-6.85331384 -0.62248677 -3.65133951 -0.63627302 0 0 Z M-9 14 C-12.57036242 18.70267736 -14.68556789 23.26429626 -16 29 C-10.27729035 26.42163631 -5.63464708 22.01895844 -3.0625 16.25 C-1.84463057 13.09463064 -1.84463057 13.09463064 -2 10 C-5.28986519 10 -6.63249316 11.79766806 -9 14 Z " fill="#2563eb" transform="translate(206,60)"/>
<path d="M0 0 C3.0625 1.875 3.0625 1.875 5 5 C5.63291194 11.58906541 3.61013092 17.5542093 0 23 C-4.6396286 28.56755432 -10.95136277 33.23784069 -18 35 C-17.34 38.3 -16.68 41.6 -16 45 C-8.36768552 42.91845969 -4.24780934 38.79445614 1 33 C1.66 34.32 2.32 35.64 3 37 C-6.672411 48.49284209 -6.672411 48.49284209 -13 51 C-17.19869445 51.08568764 -18.80853649 50.13623365 -22.25 47.6875 C-26.46282108 43.57042486 -27.30368309 40.80688157 -27.375 34.9375 C-27.18075782 24.08421828 -22.78302181 12.9399723 -15.12890625 5.078125 C-10.32010461 0.87917138 -6.60620356 -1.05900973 0 0 Z M-8.3359375 13.16796875 C-12.14008427 17.35610217 -16 23.25931175 -16 29 C-10.28095519 26.56363562 -5.37268289 21.38706713 -3.0390625 15.62890625 C-2.4158472 13.2475194 -2.4158472 13.2475194 -2 10 C-4.81831565 10 -6.25702994 11.39116845 -8.3359375 13.16796875 Z " fill="#2563eb" transform="translate(338,60)"/>
<path d="M0 0 C2.625 1.4375 2.625 1.4375 4 4 C5.68073992 10.17463319 5.0599956 14.44667465 2 20 C0 22 0 22 -2.625 22.125 C-3.40875 22.08375 -4.1925 22.0425 -5 22 C-5.75 20.375 -5.75 20.375 -6 18 C-4.68693567 15.9866347 -3.35162508 13.98768394 -2 12 C-1.20929452 8.76961158 -1.20929452 8.76961158 -1 6 C-7.84396433 8.60722451 -11.06668883 13.16321271 -14.265625 19.51171875 C-17.21147242 26.61701974 -17.68583128 33.36591082 -17 41 C-16.67 41.66 -16.34 42.32 -16 43 C-10.19657726 41.51194289 -5.82409121 38.40902445 -1 35 C-0.33984375 36.78125 -0.33984375 36.78125 0 39 C-2.67161888 43.74030432 -7.24265959 47.52221853 -12 50 C-15.22787955 50.68678288 -16.9851194 50.61369917 -19.828125 48.89453125 C-25.37425702 44.54850763 -27.72624963 39.61997425 -28.8125 32.6875 C-29.58580783 22.99647209 -26.53359624 14.32646733 -20.2578125 6.953125 C-14.01566656 0.46986613 -9.03707505 -1.05753006 0 0 Z " fill="#2563eb" transform="translate(130,60)"/>
<path d="M0 0 C6.56228804 2.43047705 6.56228804 2.43047705 8.375 4.7890625 C9 7 9 7 8.1015625 9.5078125 C7.61429687 10.37148437 7.12703125 11.23515625 6.625 12.125 C4.63556225 15.3812915 4.63556225 15.3812915 4 19 C5.08667969 17.37578125 5.08667969 17.37578125 6.1953125 15.71875 C7.17082004 14.31176797 8.14744108 12.90555752 9.125 11.5 C9.599375 10.78457031 10.07375 10.06914063 10.5625 9.33203125 C11.94623995 7.36861645 13.23251668 5.62839155 15 4 C18.3671875 3.53125 18.3671875 3.53125 21 4 C22 6 22 6 21.55078125 8.21484375 C20.71127559 12.46000359 21.14146807 16.63650881 21.35546875 20.94140625 C20.92541477 24.64176082 19.84931475 25.71047204 17 28 C14.35247996 25.42215154 12.05567935 23.08351902 10 20 C-0.21985365 29.15958064 -3.14274939 38.99073044 -6 52 C-8.62100941 51.64580954 -10.52450348 51.35112843 -12.67456055 49.76342773 C-14.96700225 46.71345418 -13.9739195 43.75070247 -13.53369141 40.12939453 C-12.62284603 34.78849059 -11.20190362 29.63473002 -9.6875 24.4375 C-9.39166016 23.37853516 -9.09582031 22.31957031 -8.79101562 21.22851562 C-3.82673761 3.82673761 -3.82673761 3.82673761 0 0 Z " fill="#2563eb" transform="translate(358,58)"/>
</svg>
