<svg width="125.1" height="28.955" viewBox="0 0 125.1 28.955" xmlns="http://www.w3.org/2000/svg"><g id="svgGroup" stroke-linecap="round" fill-rule="evenodd" font-size="9pt" stroke="#000" stroke-width="0.25mm" fill="currentColor" style="stroke:#000;stroke-width:0.25mm;fill:#000">
<path d="M 34.85 26.154 L 34.55 27.004 Q 34.349 27.539 34.025 27.817 A 1.216 1.216 0 0 1 33.675 28.029 A 3.311 3.311 0 0 1 32.675 28.246 A 3.89 3.89 0 0 1 32.425 28.254 A 4.907 4.907 0 0 0 31.246 28.402 A 5.589 5.589 0 0 0 31.05 28.454 A 215.526 215.526 0 0 1 31.089 28.357 Q 32.64 24.485 34.219 20.98 A 155.412 155.412 0 0 1 36.125 16.904 A 257.397 257.397 0 0 1 38.631 11.879 A 188.676 188.676 0 0 1 41 7.404 A 33.776 33.776 0 0 1 42.05 5.587 Q 43.183 3.769 44.258 2.672 A 10.172 10.172 0 0 1 44.275 2.654 A 15.244 15.244 0 0 1 45.233 1.757 Q 45.728 1.333 46.194 1.026 A 5.979 5.979 0 0 1 47.15 0.504 Q 48.342 0 49.155 0 A 2.466 2.466 0 0 1 49.3 0.004 Q 48.1 1.304 46.55 3.629 A 74.027 74.027 0 0 0 44.963 6.123 A 101.429 101.429 0 0 0 43.3 8.954 Q 41.6 11.954 39.9 15.279 Q 38.2 18.604 36.7 21.904 A 61.803 61.803 0 0 1 36.952 21.571 Q 37.238 21.194 37.638 20.678 A 259.855 259.855 0 0 1 38.025 20.179 A 61.234 61.234 0 0 1 38.953 19.017 Q 39.45 18.409 40.014 17.747 A 99.499 99.499 0 0 1 40.05 17.704 Q 41.2 16.354 42.425 15.129 A 17.261 17.261 0 0 1 43.644 14.017 A 12.906 12.906 0 0 1 44.85 13.129 A 6.425 6.425 0 0 1 45.576 12.72 Q 45.961 12.537 46.317 12.446 A 2.74 2.74 0 0 1 47 12.354 A 3.582 3.582 0 0 1 47.505 12.387 Q 48.076 12.469 48.367 12.754 A 0.941 0.941 0 0 1 48.475 12.879 A 2.017 2.017 0 0 1 48.846 13.953 A 2.511 2.511 0 0 1 48.85 14.104 Q 48.85 14.79 48.524 15.658 A 8.509 8.509 0 0 1 48.225 16.354 A 20.505 20.505 0 0 1 47.336 17.999 A 24.482 24.482 0 0 1 46.7 19.004 Q 45.8 20.354 44.925 21.604 A 28.91 28.91 0 0 0 44.321 22.499 Q 43.863 23.21 43.55 23.804 A 10.947 10.947 0 0 0 43.228 24.506 Q 42.938 25.203 42.871 25.711 A 2.223 2.223 0 0 0 42.85 26.004 A 1.259 1.259 0 0 0 42.879 26.287 Q 42.969 26.675 43.338 26.741 A 0.926 0.926 0 0 0 43.5 26.754 Q 43.691 26.754 43.996 26.663 A 3.813 3.813 0 0 0 44.025 26.654 A 3.007 3.007 0 0 0 44.399 26.51 A 3.89 3.89 0 0 0 44.7 26.354 A 7.882 7.882 0 0 0 45.852 25.641 Q 46.374 25.256 46.896 24.758 A 13.84 13.84 0 0 0 46.9 24.754 Q 48 23.704 49 22.604 Q 49.5 22.054 49.95 21.554 Q 50.4 21.054 50.8 20.504 Q 50.95 20.354 51.05 20.354 A 0.275 0.275 0 0 1 51.207 20.398 Q 51.315 20.47 51.341 20.664 A 1.039 1.039 0 0 1 51.35 20.804 Q 51.35 21.054 51.15 21.254 A 131.042 131.042 0 0 1 49.093 23.736 A 142.979 142.979 0 0 1 48.95 23.904 Q 48.35 24.554 47.775 25.179 Q 47.2 25.804 46.65 26.354 A 10.585 10.585 0 0 1 45.428 27.343 Q 43.951 28.354 42.6 28.354 A 2.524 2.524 0 0 1 42.028 28.294 Q 41.452 28.159 41.125 27.729 A 2.275 2.275 0 0 1 40.711 26.795 A 3.19 3.19 0 0 1 40.65 26.154 A 6.167 6.167 0 0 1 40.761 25.028 Q 40.863 24.481 41.058 23.876 A 12.889 12.889 0 0 1 41.325 23.129 Q 42 21.404 43 19.854 A 25.368 25.368 0 0 0 43.052 19.775 Q 43.198 19.554 43.625 18.904 A 48.094 48.094 0 0 0 44.108 18.152 Q 44.434 17.634 44.8 17.029 Q 45.45 15.954 45.95 15.029 Q 46.42 14.159 46.448 13.753 A 0.719 0.719 0 0 0 46.45 13.704 A 0.44 0.44 0 0 0 46.441 13.609 Q 46.389 13.377 46.05 13.504 A 1.452 1.452 0 0 0 45.846 13.603 Q 45.501 13.8 44.903 14.293 A 20.675 20.675 0 0 0 44.65 14.504 A 21.596 21.596 0 0 0 43.827 15.249 Q 43.381 15.674 42.896 16.175 A 42.043 42.043 0 0 0 42.3 16.804 A 102.302 102.302 0 0 0 40.636 18.642 A 121.574 121.574 0 0 0 39.6 19.829 Q 38.2 21.454 36.975 23.104 A 65.097 65.097 0 0 0 35.831 24.692 A 47.47 47.47 0 0 0 34.85 26.154 Z M 10.15 28.954 Q 7.9 28.954 6.2 28.129 A 12.722 12.722 0 0 1 4.401 27.075 A 10.34 10.34 0 0 1 3.3 26.179 Q 2.381 25.318 1.682 24.603 A 32.357 32.357 0 0 1 1.275 24.179 Q 0.519 23.377 0.078 23.268 A 0.602 0.602 0 0 0 0 23.254 Q 0.164 22.722 0.445 22.39 A 1.627 1.627 0 0 1 0.575 22.254 A 1.176 1.176 0 0 1 1.005 22.004 Q 1.186 21.943 1.408 21.919 A 2.756 2.756 0 0 1 1.7 21.904 Q 2.65 21.904 3.325 22.554 A 17.181 17.181 0 0 1 3.779 23.009 Q 4.313 23.564 5 24.354 Q 6.4 25.854 7.775 26.729 A 5.583 5.583 0 0 0 10.105 27.549 A 7.139 7.139 0 0 0 11 27.604 A 4.009 4.009 0 0 0 12.853 27.141 A 4.975 4.975 0 0 0 13.225 26.929 Q 14.3 26.254 14.3 25.004 A 2.807 2.807 0 0 0 13.494 23.025 A 3.742 3.742 0 0 0 13.375 22.904 Q 12.45 22.004 11.075 21.154 Q 9.7 20.304 8.325 19.329 Q 6.95 18.354 6.025 17.004 A 5.193 5.193 0 0 1 5.209 14.974 A 7.073 7.073 0 0 1 5.1 13.704 Q 5.1 11.204 6.275 8.979 Q 7.45 6.754 9.35 5.054 Q 11.25 3.354 13.5 2.404 A 12.326 12.326 0 0 1 16 1.636 A 10.191 10.191 0 0 1 17.9 1.454 A 4.108 4.108 0 0 1 19.177 1.643 A 3.254 3.254 0 0 1 20.825 2.854 A 5.189 5.189 0 0 1 21.718 4.935 A 7.255 7.255 0 0 1 21.85 6.354 A 3.498 3.498 0 0 1 21.702 7.339 Q 21.583 7.744 21.37 8.166 A 5.981 5.981 0 0 1 21.325 8.254 A 18.593 18.593 0 0 1 20.591 9.524 A 22.332 22.332 0 0 1 20.075 10.304 Q 19.35 11.354 18.825 12.429 A 5.33 5.33 0 0 0 18.415 13.564 A 4.372 4.372 0 0 0 18.3 14.554 A 1.393 1.393 0 0 1 17.222 14.065 A 2.005 2.005 0 0 1 17.075 13.879 Q 16.6 13.204 16.6 12.404 Q 16.6 11.254 17.125 10.279 Q 17.65 9.304 18.35 8.404 A 16.958 16.958 0 0 0 19.302 7.054 A 14.832 14.832 0 0 0 19.575 6.604 Q 20.1 5.704 20.1 4.654 Q 20.1 4.454 19.825 3.804 Q 19.55 3.154 18.45 3.154 A 5.321 5.321 0 0 0 17.029 3.359 Q 16.414 3.53 15.756 3.842 A 10.606 10.606 0 0 0 15.15 4.154 A 16.239 16.239 0 0 0 12.541 5.972 A 19.116 19.116 0 0 0 11.7 6.729 A 16.465 16.465 0 0 0 9.725 8.976 A 14.239 14.239 0 0 0 9 10.079 Q 8.192 11.446 8.006 12.649 A 4.611 4.611 0 0 0 7.95 13.354 Q 7.95 14.804 8.85 15.904 A 9.417 9.417 0 0 0 10.363 17.369 A 11.26 11.26 0 0 0 11.075 17.879 Q 12.4 18.754 13.7 19.604 Q 15 20.454 15.9 21.454 Q 16.8 22.454 16.8 23.804 A 5.3 5.3 0 0 1 16.637 25.151 A 3.997 3.997 0 0 1 15.85 26.704 Q 14.9 27.854 13.4 28.404 A 9.115 9.115 0 0 1 10.811 28.934 A 10.703 10.703 0 0 1 10.15 28.954 Z M 63.9 27.604 A 1.884 1.884 0 0 0 64.66 28.151 Q 65.272 28.404 66.2 28.404 A 4.751 4.751 0 0 0 68.199 27.958 A 6.335 6.335 0 0 0 69.55 27.104 A 16.256 16.256 0 0 0 70.722 26.052 A 19.368 19.368 0 0 0 72.55 23.954 A 67.25 67.25 0 0 0 73.558 22.588 A 54.89 54.89 0 0 0 75.05 20.404 Q 74.75 21.104 74.525 21.804 A 40.413 40.413 0 0 0 74.463 21.998 Q 74.373 22.284 74.296 22.544 A 23.729 23.729 0 0 0 74.15 23.054 A 5.23 5.23 0 0 0 74.095 23.213 Q 74.015 23.457 73.949 23.736 A 9.194 9.194 0 0 0 73.825 24.354 A 9.794 9.794 0 0 0 73.783 24.634 A 8.614 8.614 0 0 0 73.7 25.804 A 4.509 4.509 0 0 0 73.76 26.553 A 3.391 3.391 0 0 0 74.125 27.629 A 1.32 1.32 0 0 0 74.629 28.144 Q 75.076 28.404 75.8 28.404 Q 76.359 28.404 77.014 28.145 A 5.956 5.956 0 0 0 77.725 27.804 A 13.596 13.596 0 0 0 78.294 27.468 A 15.588 15.588 0 0 0 79.85 26.354 A 4.009 4.009 0 0 0 79.883 26.327 A 3.631 3.631 0 0 0 80.3 25.929 A 10.782 10.782 0 0 1 80.35 25.873 A 9.824 9.824 0 0 1 80.7 25.504 Q 81.7 24.504 82.6 23.429 Q 83.5 22.354 84.35 21.254 A 0.664 0.664 0 0 0 84.505 21.017 A 0.739 0.739 0 0 0 84.55 20.754 A 0.875 0.875 0 0 0 84.545 20.657 Q 84.521 20.447 84.388 20.382 A 0.315 0.315 0 0 0 84.25 20.354 Q 84.15 20.354 84 20.504 Q 83.6 21.054 83.15 21.579 A 17.156 17.156 0 0 1 82.798 21.976 A 20.482 20.482 0 0 1 82.15 22.654 Q 81.2 23.754 80.075 24.779 A 13.722 13.722 0 0 1 80.005 24.843 Q 79.478 25.316 78.956 25.685 A 8.498 8.498 0 0 1 77.85 26.354 A 4.961 4.961 0 0 1 77.796 26.383 Q 77.402 26.589 77.083 26.663 A 1.479 1.479 0 0 1 76.75 26.704 A 1.04 1.04 0 0 1 76.72 26.704 Q 76 26.683 76 25.654 A 3.82 3.82 0 0 1 76.015 25.327 Q 76.069 24.695 76.323 23.816 A 17.143 17.143 0 0 1 76.625 22.879 Q 77.25 21.104 78.225 18.979 Q 79.2 16.854 80.25 14.754 A 0.547 0.547 0 0 0 80.327 14.749 Q 80.451 14.731 80.568 14.657 A 0.92 0.92 0 0 0 80.725 14.529 A 0.74 0.74 0 0 0 80.908 14.234 A 0.889 0.889 0 0 0 80.95 13.954 A 0.29 0.29 0 0 0 80.948 13.924 Q 80.94 13.842 80.889 13.676 A 4.973 4.973 0 0 0 80.85 13.554 A 189.626 189.626 0 0 1 81.576 12.118 Q 81.926 11.431 82.252 10.808 A 105.889 105.889 0 0 1 83 9.404 Q 83.95 7.654 84.85 6.179 Q 85.75 4.704 86.75 3.254 A 73.515 73.515 0 0 1 87.038 2.839 Q 87.94 1.551 89.1 0.004 A 8.337 8.337 0 0 0 87.406 0.358 A 5.881 5.881 0 0 0 85.375 1.479 A 8.968 8.968 0 0 0 84.956 1.863 Q 84.335 2.47 83.753 3.26 A 16.287 16.287 0 0 0 82.725 4.854 A 1055.357 1055.357 0 0 0 81.908 6.291 Q 81.474 7.055 80.989 7.913 A 2158.187 2158.187 0 0 0 79.75 10.104 Q 79.55 10.504 79.35 10.929 Q 79.238 11.168 79.109 11.447 A 101.185 101.185 0 0 0 78.9 11.904 A 6.738 6.738 0 0 0 78.742 11.831 A 5.791 5.791 0 0 0 76.35 11.304 Q 74.45 11.304 72.375 12.529 A 16.393 16.393 0 0 0 70.973 13.458 A 19.223 19.223 0 0 0 68.45 15.704 A 28.679 28.679 0 0 0 68.221 15.949 A 26.063 26.063 0 0 0 65.25 19.804 Q 64.7 20.754 63.975 22.454 A 9.816 9.816 0 0 0 63.467 23.954 A 7.101 7.101 0 0 0 63.25 25.654 A 3.774 3.774 0 0 0 63.269 26.04 A 2.891 2.891 0 0 0 63.9 27.604 Z M 92.106 28.223 A 1.944 1.944 0 0 0 92.85 28.354 Q 93.421 28.354 94.15 28.117 A 8.213 8.213 0 0 0 94.9 27.829 Q 96.1 27.304 97.1 26.354 Q 98.3 25.154 99.4 23.904 A 142.979 142.979 0 0 0 99.543 23.736 A 131.042 131.042 0 0 0 101.6 21.254 A 0.664 0.664 0 0 0 101.755 21.017 A 0.739 0.739 0 0 0 101.8 20.754 A 0.875 0.875 0 0 0 101.795 20.657 Q 101.771 20.447 101.638 20.382 A 0.315 0.315 0 0 0 101.5 20.354 Q 101.4 20.354 101.25 20.504 Q 100.85 21.054 100.4 21.554 Q 99.95 22.054 99.45 22.604 Q 98.45 23.704 97.35 24.754 A 13.84 13.84 0 0 1 97.346 24.758 Q 96.824 25.256 96.302 25.641 A 7.882 7.882 0 0 1 95.15 26.354 A 2.44 2.44 0 0 1 95.124 26.367 Q 94.943 26.455 94.799 26.486 A 0.698 0.698 0 0 1 94.65 26.504 Q 94.05 26.504 94.05 25.304 Q 94.05 24.855 94.17 24.19 A 14.314 14.314 0 0 1 94.3 23.554 Q 94.413 23.067 94.68 22.298 A 29.715 29.715 0 0 1 94.875 21.754 Q 95.3 20.604 95.9 19.279 Q 96.5 17.954 97.1 16.754 Q 97.48 15.995 97.819 15.416 A 12.561 12.561 0 0 1 98.2 14.804 A 60.006 60.006 0 0 1 98.203 14.8 A 249.057 249.057 0 0 0 99.65 12.654 Q 100.156 11.895 100.557 11.554 A 1.492 1.492 0 0 1 100.85 11.354 A 7.495 7.495 0 0 0 99.637 11.449 A 5.652 5.652 0 0 0 97.65 12.154 Q 96.3 12.954 95.1 15.254 Q 94.45 16.204 93.45 17.679 Q 92.45 19.154 91.4 20.679 A 6411.611 6411.611 0 0 0 91.262 20.88 Q 90.295 22.284 89.525 23.404 Q 88.903 24.309 88.523 24.759 A 4.041 4.041 0 0 1 88.3 25.004 A 18.669 18.669 0 0 1 88.128 25.192 Q 87.611 25.752 87.181 26.119 A 5.421 5.421 0 0 1 86.75 26.454 A 4.785 4.785 0 0 1 86.556 26.582 Q 86.229 26.786 85.973 26.86 A 0.978 0.978 0 0 1 85.7 26.904 A 0.625 0.625 0 0 1 85.269 26.753 Q 84.95 26.47 84.95 25.654 A 5.33 5.33 0 0 1 85.08 24.524 Q 85.21 23.926 85.47 23.263 A 12.788 12.788 0 0 1 86.05 22.004 Q 86.9 20.354 87.825 18.654 A 143.41 143.41 0 0 1 88.719 17.035 A 106.925 106.925 0 0 1 89.55 15.579 A 67.846 67.846 0 0 1 89.906 14.974 Q 90.276 14.353 90.553 13.924 A 14.24 14.24 0 0 1 90.8 13.554 A 6.598 6.598 0 0 0 91.012 13.192 Q 91.199 12.845 91.265 12.595 A 0.96 0.96 0 0 0 91.3 12.354 A 0.631 0.631 0 0 0 91.299 12.318 Q 91.278 11.948 90.814 11.873 A 1.664 1.664 0 0 0 90.55 11.854 A 1.826 1.826 0 0 0 90.376 11.863 Q 89.926 11.906 89.324 12.164 A 7.885 7.885 0 0 0 88.725 12.454 A 6.036 6.036 0 0 0 88.529 12.563 Q 87.555 13.13 87.1 13.904 A 105.047 105.047 0 0 0 86.516 15.025 Q 85.848 16.323 85.075 17.904 A 80.471 80.471 0 0 0 85.003 18.052 Q 84.465 19.158 84.015 20.17 A 49.281 49.281 0 0 0 83.2 22.104 A 2.448 2.448 0 0 0 83.123 22.275 Q 82.962 22.672 82.8 23.379 A 7.636 7.636 0 0 0 82.776 23.489 A 8.208 8.208 0 0 0 82.6 25.204 A 5.056 5.056 0 0 0 82.6 25.273 A 4.352 4.352 0 0 0 83.075 27.229 Q 83.424 27.908 84.272 28.089 A 3.265 3.265 0 0 0 84.95 28.154 A 3.039 3.039 0 0 0 85.604 28.082 Q 86.117 27.969 86.643 27.68 A 5.967 5.967 0 0 0 87.525 27.079 A 14.103 14.103 0 0 0 88.843 25.855 A 19.09 19.09 0 0 0 90.125 24.354 A 48.245 48.245 0 0 0 90.44 23.942 A 43.778 43.778 0 0 0 92.45 21.054 Q 91.85 22.604 91.5 23.929 Q 91.298 24.695 91.212 25.353 A 7.021 7.021 0 0 0 91.15 26.254 A 4.539 4.539 0 0 0 91.163 26.609 Q 91.263 27.876 92.106 28.223 Z M 102.35 28.354 Q 101.4 28.354 100.75 27.729 Q 100.14 27.143 100.102 25.741 A 6.994 6.994 0 0 1 100.1 25.554 Q 100.1 25.204 100.15 24.779 Q 100.2 24.354 100.3 23.854 A 12.268 12.268 0 0 1 100.51 22.937 Q 100.781 21.92 101.278 20.594 A 39.785 39.785 0 0 1 101.35 20.404 A 62.372 62.372 0 0 1 102.225 18.235 A 78.393 78.393 0 0 1 103.25 15.929 Q 104.35 13.554 105.5 11.329 Q 106.65 9.104 107.6 7.504 Q 109.45 4.454 111.05 2.804 A 17.858 17.858 0 0 1 112.016 1.875 Q 113.041 0.967 113.9 0.554 Q 115.15 -0.046 116 0.004 Q 115.005 1.114 113.863 2.605 A 67.229 67.229 0 0 0 113.15 3.554 A 48.182 48.182 0 0 0 111.755 5.554 Q 110.834 6.945 109.85 8.604 A 225.434 225.434 0 0 0 107.854 12.121 Q 106.925 13.794 106.13 15.304 A 134.64 134.64 0 0 0 106.025 15.504 Q 104.4 18.604 103.25 21.854 Q 102.6 23.754 102.6 24.954 Q 102.6 26.6 103.677 26.652 A 1.484 1.484 0 0 0 103.75 26.654 A 2.198 2.198 0 0 0 104.487 26.517 Q 105.089 26.303 105.775 25.754 A 24.376 24.376 0 0 0 106.522 25.133 Q 106.866 24.835 107.148 24.562 A 10.519 10.519 0 0 0 107.55 24.154 A 49.453 49.453 0 0 0 108.494 23.185 A 37.174 37.174 0 0 0 109.325 22.279 Q 110.1 21.404 110.85 20.504 Q 111 20.354 111.1 20.354 A 0.275 0.275 0 0 1 111.257 20.398 Q 111.365 20.47 111.391 20.664 A 1.039 1.039 0 0 1 111.4 20.804 A 0.595 0.595 0 0 1 111.268 21.177 A 0.818 0.818 0 0 1 111.2 21.254 Q 110.65 21.904 110.125 22.579 Q 109.6 23.254 109 23.904 A 12.889 12.889 0 0 1 108.067 24.983 A 14.458 14.458 0 0 1 107.875 25.179 A 40.342 40.342 0 0 1 106.952 26.074 A 35.621 35.621 0 0 1 106.65 26.354 A 7.927 7.927 0 0 1 105.4 27.308 A 9.851 9.851 0 0 1 104.6 27.754 Q 103.4 28.354 102.35 28.354 Z M 22.599 28.815 A 6.192 6.192 0 0 0 23.95 28.954 Q 26.65 28.954 28.725 27.379 Q 30.8 25.804 32.45 23.954 L 33.55 22.654 Q 34.1 22.004 34.6 21.354 Q 34.8 21.104 34.8 20.754 Q 34.8 20.573 34.749 20.474 A 0.208 0.208 0 0 0 34.55 20.354 Q 34.5 20.354 34.425 20.429 L 34.25 20.604 Q 33.85 21.104 33.4 21.604 Q 32.95 22.104 32.45 22.654 Q 31.05 24.204 29.425 25.604 A 11.442 11.442 0 0 1 29.066 25.901 A 9.841 9.841 0 0 1 25.9 27.604 A 8.759 8.759 0 0 1 25.374 27.778 Q 25.003 27.887 24.671 27.943 A 4.006 4.006 0 0 1 24 28.004 A 2.875 2.875 0 0 1 23.813 27.998 Q 23.009 27.946 22.65 27.429 A 2.161 2.161 0 0 1 22.319 26.661 A 2.989 2.989 0 0 1 22.25 26.004 Q 22.25 24.904 22.65 23.629 A 23.197 23.197 0 0 1 22.87 22.964 A 19.927 19.927 0 0 1 23.55 21.254 A 148.022 148.022 0 0 1 23.72 20.882 Q 23.981 20.311 24.14 19.98 A 15.321 15.321 0 0 1 24.25 19.754 A 15.363 15.363 0 0 1 24.624 19.104 A 16.951 16.951 0 0 1 26.65 16.429 A 25.494 25.494 0 0 1 26.848 16.216 Q 27.517 15.506 28.169 14.925 A 15.111 15.111 0 0 1 29.475 13.879 A 8.563 8.563 0 0 1 29.916 13.585 Q 30.816 13.028 31.403 13.034 A 1.066 1.066 0 0 1 31.6 13.054 Q 31.65 13.304 31.4 14.054 Q 31.15 14.804 30.85 15.554 Q 30.624 16.12 30.511 16.429 A 7.075 7.075 0 0 0 30.45 16.604 A 7.192 7.192 0 0 0 30.344 16.897 Q 30.25 17.176 30.218 17.37 A 1.121 1.121 0 0 0 30.2 17.554 A 0.777 0.777 0 0 0 30.206 17.652 Q 30.227 17.821 30.33 17.877 A 0.248 0.248 0 0 0 30.45 17.904 A 0.336 0.336 0 0 0 30.475 17.903 Q 30.667 17.889 30.993 17.66 A 4.141 4.141 0 0 0 31.2 17.504 A 3.138 3.138 0 0 0 31.337 17.388 Q 31.645 17.111 32.022 16.645 A 13.686 13.686 0 0 0 32.4 16.154 A 2.484 2.484 0 0 0 32.83 15.324 A 3.021 3.021 0 0 0 32.95 14.454 A 3.114 3.114 0 0 0 32.737 13.315 A 3.631 3.631 0 0 0 32.15 12.329 A 2.545 2.545 0 0 0 30.858 11.48 A 3.452 3.452 0 0 0 29.9 11.354 A 4.201 4.201 0 0 0 29.165 11.421 Q 28.551 11.53 27.9 11.817 A 8.297 8.297 0 0 0 26.775 12.429 A 12.945 12.945 0 0 0 25.343 13.499 A 16.135 16.135 0 0 0 23.6 15.254 Q 22.1 17.004 21.05 19.104 Q 20.55 20.054 20.075 21.679 A 12.722 12.722 0 0 0 19.825 22.683 A 10.508 10.508 0 0 0 19.6 24.804 A 6.969 6.969 0 0 0 19.619 25.326 Q 19.751 27.08 20.8 27.954 Q 21.552 28.581 22.599 28.815 Z M 52.63 28.806 A 5.153 5.153 0 0 0 53.9 28.954 Q 56.25 28.954 58.175 27.804 A 21.359 21.359 0 0 0 58.991 27.292 Q 59.638 26.865 60.17 26.439 A 10.566 10.566 0 0 0 61.2 25.504 Q 62.15 24.504 63.05 23.429 Q 63.95 22.354 64.85 21.254 Q 65.05 21.054 65.05 20.804 A 1.039 1.039 0 0 0 65.041 20.664 Q 65.015 20.47 64.907 20.398 A 0.275 0.275 0 0 0 64.75 20.354 Q 64.65 20.354 64.5 20.504 Q 64.1 21.054 63.65 21.579 A 45.317 45.317 0 0 1 63.422 21.843 A 50.549 50.549 0 0 1 62.7 22.654 L 61.525 23.829 Q 61 24.354 60.45 24.854 A 10.832 10.832 0 0 1 60.24 25.022 Q 59.707 25.436 58.8 26.054 Q 57.7 26.804 56.45 27.379 Q 55.2 27.954 54.1 27.954 Q 53.4 27.954 52.925 27.529 A 1.238 1.238 0 0 1 52.61 27.071 Q 52.525 26.866 52.486 26.608 A 3.318 3.318 0 0 1 52.45 26.104 A 4.805 4.805 0 0 1 52.452 25.973 A 4.138 4.138 0 0 1 52.475 25.629 A 4.969 4.969 0 0 1 52.497 25.457 A 5.942 5.942 0 0 1 52.55 25.154 Q 52.65 24.604 52.8 23.979 A 19.374 19.374 0 0 1 52.809 23.94 A 21.069 21.069 0 0 1 53.15 22.704 A 21.977 21.977 0 0 0 55.022 22.196 A 18.085 18.085 0 0 0 58.675 20.579 A 14.23 14.23 0 0 0 60.785 19.057 A 17.616 17.616 0 0 0 63.1 16.604 A 7.534 7.534 0 0 0 63.174 16.509 Q 63.667 15.86 63.9 15.254 Q 64.15 14.604 64.15 14.104 Q 64.15 12.854 63.175 12.104 Q 62.2 11.354 60.85 11.354 Q 59.898 11.354 58.828 11.817 A 8.793 8.793 0 0 0 57.675 12.429 A 14.553 14.553 0 0 0 56.132 13.542 A 18.554 18.554 0 0 0 54.325 15.254 Q 52.7 17.004 51.55 19.104 A 7.405 7.405 0 0 0 51.544 19.115 Q 50.997 20.063 50.425 21.704 Q 49.85 23.354 49.85 24.854 Q 49.85 25.585 50.005 26.194 A 3.512 3.512 0 0 0 50.95 27.879 A 3.635 3.635 0 0 0 52.63 28.806 Z M 112.68 28.806 A 5.153 5.153 0 0 0 113.95 28.954 Q 116.3 28.954 118.225 27.804 A 21.359 21.359 0 0 0 119.041 27.292 Q 119.688 26.865 120.22 26.439 A 10.566 10.566 0 0 0 121.25 25.504 Q 122.2 24.504 123.1 23.429 Q 124 22.354 124.9 21.254 Q 125.1 21.054 125.1 20.804 A 1.039 1.039 0 0 0 125.091 20.664 Q 125.065 20.47 124.957 20.398 A 0.275 0.275 0 0 0 124.8 20.354 Q 124.7 20.354 124.55 20.504 Q 124.15 21.054 123.7 21.579 A 45.317 45.317 0 0 1 123.472 21.843 A 50.549 50.549 0 0 1 122.75 22.654 L 121.575 23.829 Q 121.05 24.354 120.5 24.854 A 10.832 10.832 0 0 1 120.29 25.022 Q 119.757 25.436 118.85 26.054 Q 117.75 26.804 116.5 27.379 Q 115.25 27.954 114.15 27.954 Q 113.45 27.954 112.975 27.529 A 1.238 1.238 0 0 1 112.66 27.071 Q 112.575 26.866 112.536 26.608 A 3.318 3.318 0 0 1 112.5 26.104 A 4.805 4.805 0 0 1 112.502 25.973 A 4.138 4.138 0 0 1 112.525 25.629 A 4.969 4.969 0 0 1 112.547 25.457 A 5.942 5.942 0 0 1 112.6 25.154 Q 112.7 24.604 112.85 23.979 A 19.374 19.374 0 0 1 112.859 23.94 A 21.069 21.069 0 0 1 113.2 22.704 A 21.977 21.977 0 0 0 115.072 22.196 A 18.085 18.085 0 0 0 118.725 20.579 A 14.23 14.23 0 0 0 120.835 19.057 A 17.616 17.616 0 0 0 123.15 16.604 A 7.534 7.534 0 0 0 123.224 16.509 Q 123.717 15.86 123.95 15.254 Q 124.2 14.604 124.2 14.104 Q 124.2 12.854 123.225 12.104 Q 122.25 11.354 120.9 11.354 Q 119.948 11.354 118.878 11.817 A 8.793 8.793 0 0 0 117.725 12.429 A 14.553 14.553 0 0 0 116.182 13.542 A 18.554 18.554 0 0 0 114.375 15.254 Q 112.75 17.004 111.6 19.104 A 7.405 7.405 0 0 0 111.594 19.115 Q 111.047 20.063 110.475 21.704 Q 109.9 23.354 109.9 24.854 Q 109.9 25.585 110.055 26.194 A 3.512 3.512 0 0 0 111 27.879 A 3.635 3.635 0 0 0 112.68 28.806 Z M 66.5 27.154 A 1.743 1.743 0 0 0 67.025 27.061 Q 67.793 26.815 68.975 25.923 A 16.522 16.522 0 0 0 69 25.904 Q 70.191 24.962 71.48 23.601 A 33.006 33.006 0 0 0 71.5 23.579 A 70.224 70.224 0 0 0 73.352 21.545 A 61.782 61.782 0 0 0 73.925 20.879 Q 74.786 19.865 75.34 19.187 A 47.614 47.614 0 0 0 75.65 18.804 A 81.213 81.213 0 0 1 76.577 16.655 A 94.204 94.204 0 0 1 76.975 15.779 Q 77.7 14.204 78.5 12.654 A 1.836 1.836 0 0 0 78.003 12.492 A 2.545 2.545 0 0 0 77.55 12.454 A 3.438 3.438 0 0 0 76.527 12.622 Q 75.672 12.889 74.675 13.579 Q 73.05 14.704 71.55 16.304 Q 69.85 18.104 68.45 20.179 A 28.386 28.386 0 0 0 67.428 21.803 Q 66.973 22.588 66.634 23.31 A 14.694 14.694 0 0 0 66.35 23.954 A 8.839 8.839 0 0 0 66.119 24.492 Q 65.953 24.92 65.875 25.279 Q 65.785 25.693 65.76 26.016 A 3.067 3.067 0 0 0 65.75 26.254 A 1.578 1.578 0 0 0 65.782 26.588 Q 65.905 27.154 66.5 27.154 Z M 53.45 22.054 A 16.938 16.938 0 0 0 54.485 21.571 Q 55.048 21.287 55.674 20.928 A 35.345 35.345 0 0 0 56.475 20.454 A 21.543 21.543 0 0 0 59.212 18.467 A 24.555 24.555 0 0 0 59.825 17.929 A 15.445 15.445 0 0 0 61.826 15.744 A 13.519 13.519 0 0 0 62.5 14.754 A 2.862 2.862 0 0 0 62.692 14.404 Q 62.85 14.057 62.85 13.754 Q 62.85 13.054 62.05 13.054 Q 61.511 13.054 60.733 13.438 A 6.413 6.413 0 0 0 60.7 13.454 Q 58.2 14.804 56.4 17.104 Q 54.6 19.404 53.45 22.054 Z M 113.5 22.054 A 16.938 16.938 0 0 0 114.535 21.571 Q 115.098 21.287 115.724 20.928 A 35.345 35.345 0 0 0 116.525 20.454 A 21.543 21.543 0 0 0 119.262 18.467 A 24.555 24.555 0 0 0 119.875 17.929 A 15.445 15.445 0 0 0 121.876 15.744 A 13.519 13.519 0 0 0 122.55 14.754 A 2.862 2.862 0 0 0 122.742 14.404 Q 122.9 14.057 122.9 13.754 Q 122.9 13.054 122.1 13.054 Q 121.561 13.054 120.783 13.438 A 6.413 6.413 0 0 0 120.75 13.454 Q 118.25 14.804 116.45 17.104 Q 114.65 19.404 113.5 22.054 Z"/></g></svg>